# AST/ASF file generated using VICON BodyLanguage
# -----------------------------------------------
:version 1.10
:name VICON
:units
  mass 1.0
  length 0.45
  angle deg
:documentation
   .ast/.asf automatically generated from VICON data using
   VICON BodyBuilder and BodyLanguage model FoxedUp or BRILLIANT.MOD
:root
   order TX TY TZ RX RY RZ
   axis XYZ
   position 0 0 0  
   orientation 0 0 0 
:bonedata
  begin
     id 1 
     name lhipjoint
     direction 0.528046 -0.759594 0.379717 
     length 2.39752 
     axis 0 0 0  XYZ
  end
  begin
     id 2 
     name lfemur
     direction 0.34202 -0.939693 0  
     length 7.31175  
     axis 0 0 20  XYZ
    dof rx ry rz
    limits (-160.0 20.0)
           (-70.0 70.0)
           (-60.0 70.0)
  end
  begin
     id 3 
     name ltibia
     direction 0.34202 -0.939693 0   
     length 7.52482   
     axis 0 0 20   XYZ
    dof rx
    limits (-10.0 170.0)
  end
  begin
     id 4 
     name lfoot
     direction 0.0675379 -0.185559 0.980309   
     length 2.00961   
     axis -90 7.62852e-016 20   XYZ
    dof rx rz
    limits (-45.0 90.0)
           (-70.0 20.0)
  end
  begin
     id 5 
     name ltoes
     direction 1.5352e-011 -4.22286e-011 1   
     length 1.01383   
     axis -90 7.62852e-016 20   XYZ
    dof rx
    limits (-90.0 20.0)
  end
  begin
     id 6 
     name rhipjoint
     direction -0.510274 -0.769251 0.384544   
     length 2.36742  
     axis 0 0 0  XYZ 
  end
  begin
     id 7 
     name rfemur
     direction -0.34202 -0.939693 0   
     length 7.45325   
     axis 0 0 -20   XYZ
    dof rx ry rz
    limits (-160.0 20.0)
           (-70.0 70.0)
           (-70.0 60.0)
  end
  begin
     id 8 
     name rtibia
     direction -0.34202 -0.939693 0   
     length 7.49587   
     axis 0 0 -20   XYZ
    dof rx
    limits (-10.0 170.0)
 end
 begin
     id 9 
     name rfoot
     direction -0.106475 -0.292536 0.950308   
     length 2.20898  
     axis -90 -7.62852e-016 -20   XYZ
    dof rx rz
    limits (-45.0 90.0)
           (-20.0 70.0)
  end
  begin
     id 10 
     name rtoes
     direction -1.53597e-011 -4.22023e-011 1   
     length 1.10065   
     axis -90 -7.62852e-016 -20   XYZ
    dof rx
    limits (-90.0 20.0)
  end
  begin
     id 11 
     name lowerback
     direction 0.0260024 0.998026 -0.0571652   
     length 2.11214   
     axis 0 0 0   XYZ
    dof rx ry rz
    limits (-20.0 45.0)
           (-30.0 30.0)
           (-30.0 30.0)
  end
  begin
     id 12 
     name upperback
     direction 0.0216202 0.999542 -0.0211766   
     length 2.11689   
     axis 0 0 0   XYZ
    dof rx ry rz
    limits (-20.0 45.0)
           (-30.0 30.0)
           (-30.0 30.0)
  end
  begin
     id 13 
     name thorax
     direction 0.00883312 0.999944 0.00589057   
     length 2.11821   
     axis 0 0 0   XYZ
    dof rx ry rz
    limits (-20.0 45.0)
           (-30.0 30.0)
           (-30.0 30.0)
  end
  begin
     id 14 
     name lowerneck
     direction -0.059386 0.994433 0.0870401   
     length 1.81176   
     axis 0 0 0   XYZ
    dof rx ry rz
    limits (-20.0 45.0)
           (-30.0 30.0)
           (-30.0 30.0)
  end
  begin
     id 15 
     name upperneck
     direction 0.0506457 0.97328 -0.223967   
     length 1.82382   
     axis 0 0 0   XYZ
    dof rx ry rz
    limits (-20.0 45.0)
           (-30.0 30.0)
           (-30.0 30.0)
  end
  begin
     id 16
     name head
     direction 0.0205902 0.996147 -0.0852487  
     length 1.84805  
     axis 0 0 0   XYZ
    dof rx ry rz
    limits (-20.0 45.0)
           (-30.0 30.0)
           (-30.0 30.0)
  end
  begin
     id 17 
     name lclavicle
     direction 0.949493 0.303881 -0.0782325  
     length 3.60584  
     axis 0 0 0   XYZ
    dof ry rz
    limits (-20.0 10.0)
           (0.0 20.0)
  end
  begin
     id 18 
     name lhumerus
     direction 1 -4.48965e-011 1.48782e-027   
     length 4.95681   
     axis 180 -30 -90   XYZ
    dof rx ry rz
    limits (-60.0 90.0)
           (-90.0 90.0)
           (-90.0 90.0)
  end
  begin
     id 19
     name lradius
     direction 1 -4.48952e-011 2.06528e-027   
     length 3.40915   
     axis 180 -30 -90   XYZ
    dof rx
    limits (-10.0 170.0)
  end
  begin
     id 20
     name lwrist
     direction 1 -4.48964e-011 1.28021e-027   
     length 1.70457   
     axis -1.61767e-015 90 90   XYZ
    dof ry
    limits (-180.0 0.0)
 end
  begin
     id 21 
     name lhand
     direction 1 -4.49094e-011 2.54887e-027   
     length 0.616403   
     axis -1.63363e-015 90 90   XYZ
    dof rx rz
    limits (-90.0 90.0)
           (-45.0 45.0)
  end
  begin
     id 22 
     name lfingers
     direction 1 -4.49002e-011 5.11407e-027   
     length 0.49696   
     axis -3.26723e-015 90 90   XYZ
    dof rx
    limits (0.0 90.0)
  end
  begin
     id 23
     name lthumb
     direction 0.707107 -6.34998e-011 0.707107   
     length 0.713539   
     axis -90 45 -2.25915e-014   XYZ
    dof rx rz
    limits (-45.0 45.0)
           (-45.0 45.0)
  end
  begin
     id 24 
     name rclavicle
     direction -0.937751 0.334612 -0.0930482   
     length 3.46287  
     axis 0 0 0   XYZ 
    dof ry rz
    limits (-10.0 20.0)
           (-20.0 0.0)
  end
  begin
     id 25 
     name rhumerus
     direction -1 -4.48962e-011 3.59972e-027  
     length 5.352   
     axis 180 30 90   XYZ
    dof rx ry rz
    limits (-90.0 60.0)
           (-90.0 90.0)
           (-90.0 90.0)
  end
  begin
     id 26 
     name rradius
     direction -1 -4.48987e-011 -3.76925e-027   
     length 3.43721   
     axis 180 30 90   XYZ
    dof rx
    limits (-10.0 170.0)
  end
  begin
     id 27 
     name rwrist
     direction -1 -4.48943e-011 1.28112e-027   
     length 1.7186   
     axis -1.61767e-015 -90 -90   XYZ
    dof ry
    limits (-180.0 0.0)
  end
  begin
     id 28
     name rhand
     direction -1 -4.49027e-011 2.55483e-027   
     length 0.72009   
     axis -1.63363e-015 -90 -90   XYZ
    dof rx rz
    limits (-90.0 90.0)
           (-45.0 45.0)
  end
  begin
     id 29
     name rfingers
     direction -1 -4.48827e-011 5.14506e-027   
     length 0.580555   
     axis -3.26723e-015 -90 -90   XYZ
    dof rx
    limits (0.0 90.0)
  end
  begin
     id 30
     name rthumb
     direction -0.707107 -6.34936e-011 0.707107   
     length 0.833564   
     axis -90 -45 2.25915e-014   XYZ
    dof rx rz
    limits (-45.0 45.0)
           (-45.0 45.0)
  end
:hierarchy
  begin
    root lhipjoint rhipjoint lowerback
    lhipjoint lfemur
    lfemur ltibia
    ltibia lfoot
    lfoot ltoes
    rhipjoint rfemur
    rfemur rtibia
    rtibia rfoot
    rfoot rtoes
    lowerback upperback
    upperback thorax
    thorax lowerneck lclavicle rclavicle
    lowerneck upperneck
    upperneck head
    lclavicle lhumerus
    lhumerus lradius
    lradius lwrist
    lwrist lhand lthumb
    lhand lfingers
    rclavicle rhumerus
    rhumerus rradius
    rradius rwrist
    rwrist rhand rthumb
    rhand rfingers
  end

#!OML:ASF H:\Terrain\Patient Classification 1\Terrain2\Thursday\justin.ASF
:FULLY-SPECIFIED
:DEGREES
813
root 19.6856 24.1476 19.5762 1.07917 -34.1634 -5.48951
lowerback 5.08436 2.19654 4.98719
upperback 3.69073 3.0514 3.38164
thorax 1.03749 1.55842 0.568488
lowerneck -10.8783 -1.10783 -8.38011
upperneck 40.101 -1.28195 3.45477
head 16.2566 -1.5154 2.77184
rclavicle 8.65707e-014 4.77083e-015
rhumerus -29.4244 -8.59779 -78.7131
rradius 31.3938
rwrist -10.727
rhand -18.5498 12.1254
rfingers 7.12502
rthumb 7.73973 -17.713
lclavicle 8.65707e-014 4.77083e-015
lhumerus -37.4916 12.6919 86.1288
lradius 21.6874
lwrist -5.06417
lhand -11.2834 21.0937
lfingers 7.12502
lthumb 14.7475 50.5491
rfemur -5.51471 3.34147 26.9592
rtibia 27.0583
rfoot -15.2926 11.7898
rtoes 31.9869
lfemur -20.123 -9.12599 -8.21101
ltibia 40.8366
lfoot -11.2651 -24.318
ltoes -2.87962
814
root 19.694 24.1343 19.618 1.16399 -35.2645 -5.49615
lowerback 5.12586 2.29976 5.04312
upperback 3.65205 3.19518 3.34925
thorax 0.983432 1.62984 0.496082
lowerneck -11.4372 -1.23919 -8.29025
upperneck 40.1424 -1.4954 3.52697
head 16.4354 -1.58387 2.755
rclavicle -1.69961e-014 -3.65764e-014
rhumerus -29.3234 -8.68619 -78.7134
rradius 31.3743
rwrist -10.7147
rhand -18.4861 12.6554
rfingers 7.12502
rthumb 7.80121 -17.1807
lclavicle -1.69961e-014 -3.65764e-014
lhumerus -37.5847 12.185 86.457
lradius 21.8839
lwrist -4.63025
lhand -11.171 21.1906
lfingers 7.12502
lthumb 14.8558 50.638
rfemur -5.38854 3.77608 26.785
rtibia 27.0528
rfoot -15.4758 12.5639
rtoes 31.6966
lfemur -19.6776 -10.5716 -7.96242
ltibia 39.3326
lfoot -10.5718 -25.3018
ltoes 0.735143
815
root 19.7051 24.1036 19.6616 1.30385 -36.3573 -5.52019
lowerback 5.12541 2.46792 5.23259
upperback 3.57688 3.42978 3.29734
thorax 0.927899 1.74876 0.327444
lowerneck -10.5026 -1.17977 -8.69887
upperneck 39.652 -1.46994 3.73472
head 15.9486 -1.60086 2.90598
rclavicle -4.88016e-014 1.59028e-015
rhumerus -29.4384 -8.61085 -78.6669
rradius 31.6556
rwrist -10.9328
rhand -18.6152 12.5334
rfingers 7.12502
rthumb 7.67653 -17.3073
lclavicle -4.88016e-014 1.59028e-015
lhumerus -37.7016 11.3615 86.8918
lradius 22.1068
lwrist -4.26911
lhand -11.0057 21.3141
lfingers 7.12502
lthumb 15.015 50.7497
rfemur -5.06498 3.92969 26.6327
rtibia 26.9571
rfoot -16.1967 13.0973
rtoes 28.1818
lfemur -19.4461 -12.1589 -7.72614
ltibia 38.0898
lfoot -9.67377 -26.2336
ltoes 4.62591
816
root 19.7103 24.0924 19.7116 1.38171 -37.3682 -5.43775
lowerback 5.01059 2.5609 5.2279
upperback 3.52823 3.54711 3.26826
thorax 0.946842 1.8073 0.300233
lowerneck -10.7855 -1.29413 -8.61815
upperneck 39.7158 -1.64613 3.70965
head 16.0664 -1.67132 2.85356
rclavicle -2.08724e-015 -7.95139e-015
rhumerus -29.5025 -8.28961 -78.6619
rradius 31.9425
rwrist -11.0127
rhand -18.6185 12.0679
rfingers 7.12502
rthumb 7.67335 -17.7729
lclavicle -2.08724e-015 -7.95139e-015
lhumerus -37.9381 11.1277 87.049
lradius 22.4418
lwrist -4.38275
lhand -10.8665 21.2025
lfingers 7.12502
lthumb 15.1491 50.628
rfemur -4.92274 3.89229 26.3819
rtibia 26.8858
rfoot -16.6814 13.4739
rtoes 24.5216
lfemur -19.2042 -13.8437 -7.65779
ltibia 37.0106
lfoot -9.62452 -27.4055
ltoes 5.73953
817
root 19.7144 24.0871 19.7536 1.60989 -38.3251 -5.44484
lowerback 4.91286 2.61542 5.14475
upperback 3.43424 3.61473 3.27268
thorax 0.900359 1.83782 0.34998
lowerneck -10.7821 -1.24362 -8.45475
upperneck 39.6898 -1.61631 3.66621
head 16.0446 -1.64478 2.80746
rclavicle -2.48481e-015 3.18055e-014
rhumerus -29.5346 -7.87514 -78.7544
rradius 32.2031
rwrist -11.3822
rhand -18.6808 11.9136
rfingers 7.12502
rthumb 7.61327 -17.9294
lclavicle -2.48481e-015 3.18055e-014
lhumerus -38.112 11.0223 87.1461
lradius 22.7258
lwrist -4.62618
lhand -10.9564 21.0131
lfingers 7.12502
lthumb 15.0625 50.4452
rfemur -5.10358 4.21527 26.2293
rtibia 26.9333
rfoot -16.747 13.9539
rtoes 23.4276
lfemur -19.0992 -15.102 -7.45335
ltibia 35.9279
lfoot -9.3193 -28.7405
ltoes 6.62875
818
root 19.7221 24.0717 19.7992 1.99662 -39.3247 -5.69509
lowerback 4.8606 2.71653 5.32487
upperback 3.3319 3.75672 3.29879
thorax 0.838881 1.90856 0.27203
lowerneck -10.5613 -1.28922 -8.82623
upperneck 39.5625 -1.74148 3.9779
head 15.9435 -1.7144 2.98589
rclavicle -1.00386e-013 -3.97569e-015
rhumerus -29.747 -7.34727 -78.8475
rradius 32.7514
rwrist -12.2271
rhand -18.7453 12.0432
rfingers 7.12502
rthumb 7.55097 -17.802
lclavicle -1.00386e-013 -3.97569e-015
lhumerus -38.1729 10.7537 87.3199
lradius 22.8537
lwrist -4.93435
lhand -11.1759 20.861
lfingers 7.12502
lthumb 14.851 50.3087
rfemur -5.38758 4.58666 26.2308
rtibia 27.1498
rfoot -16.7568 14.7301
rtoes 23.4538
lfemur -18.9225 -15.9419 -7.04316
ltibia 34.7331
lfoot -7.3469 -29.8444
ltoes 11.9288
819
root 19.7292 24.0596 19.8498 2.27189 -40.4484 -5.90847
lowerback 4.81268 2.81291 5.4907
upperback 3.31028 3.8867 3.2987
thorax 0.859675 1.97543 0.178527
lowerneck -11.1551 -1.44648 -8.87744
upperneck 39.7646 -1.98041 4.11305
head 16.2216 -1.81213 3.02289
rclavicle 3.6477e-014 -8.74653e-015
rhumerus -29.7904 -6.95696 -78.9107
rradius 33.1357
rwrist -12.7088
rhand -18.5452 11.8588
rfingers 7.12502
rthumb 7.74409 -17.9794
lclavicle 3.6477e-014 -8.74653e-015
lhumerus -38.1592 10.6367 87.3938
lradius 22.9292
lwrist -5.21214
lhand -10.775 20.8287
lfingers 7.12502
lthumb 15.2373 50.2476
rfemur -5.69066 4.97401 26.1753
rtibia 27.5796
rfoot -16.5116 15.6549
rtoes 24.914
lfemur -18.4644 -16.7259 -6.7264
ltibia 33.4574
lfoot -4.69996 -30.6267
ltoes 19.3493
820
root 19.7319 24.0738 19.8965 2.30144 -41.8019 -5.747
lowerback 4.71378 2.84221 5.17642
upperback 3.31712 3.90685 3.23406
thorax 0.904446 1.98232 0.290155
lowerneck -11.6448 -1.36066 -8.29295
upperneck 39.9818 -1.82442 3.67145
head 16.429 -1.7294 2.75143
rclavicle 5.50634e-014 -3.18055e-014
rhumerus -29.4689 -6.76318 -79.1157
rradius 33.0365
rwrist -12.228
rhand -18.3923 11.6021
rfingers 7.12502
rthumb 7.89173 -18.2306
lclavicle 5.50634e-014 -3.18055e-014
lhumerus -38.164 10.5209 87.3945
lradius 23.056
lwrist -4.95497
lhand -10.3209 20.7557
lfingers 7.12502
lthumb 15.6746 50.1407
rfemur -6.12275 5.41575 25.8299
rtibia 28.0939
rfoot -16.0466 16.603
rtoes 27.0665
lfemur -17.8673 -17.1745 -6.81192
ltibia 32.2344
lfoot -3.94053 -31.1582
ltoes 20.5539
821
root 19.7391 24.0927 19.9436 2.19374 -43.0942 -5.35035
lowerback 4.65949 2.87351 4.7389
upperback 3.25354 3.93508 3.13428
thorax 0.845213 1.98982 0.42823
lowerneck -11.5834 -1.2684 -7.86601
upperneck 39.8883 -1.69787 3.32128
head 16.3408 -1.66453 2.53438
rclavicle -8.05078e-015 -1.51076e-014
rhumerus -29.242 -6.48538 -79.3362
rradius 33.0356
rwrist -11.7967
rhand -18.3568 11.5981
rfingers 7.12502
rthumb 7.92593 -18.2333
lclavicle -8.05078e-015 -1.51076e-014
lhumerus -38.312 10.1346 87.4925
lradius 23.3275
lwrist -4.43559
lhand -10.5479 20.614
lfingers 7.12502
lthumb 15.456 50.016
rfemur -6.63276 5.35484 25.2479
rtibia 28.4392
rfoot -15.4891 18.08
rtoes 29.1165
lfemur -17.3551 -17.2818 -7.20215
ltibia 31.2552
lfoot -3.70221 -31.5036
ltoes 19.4586
822
root 19.7556 24.0766 19.9968 2.13252 -44.0451 -5.17268
lowerback 4.73317 2.9082 4.75901
upperback 3.20283 3.99051 3.00441
thorax 0.763937 2.01746 0.27617
lowerneck -11.3916 -1.3502 -7.58204
upperneck 39.6554 -1.83508 3.06748
head 16.1734 -1.71277 2.34075
rclavicle -7.81224e-014 -1.19271e-014
rhumerus -29.0195 -6.40004 -79.4698
rradius 33.0496
rwrist -11.9834
rhand -18.4544 11.4096
rfingers 7.12502
rthumb 7.83176 -18.4253
lclavicle -7.81224e-014 -1.19271e-014
lhumerus -38.4335 9.62235 87.599
lradius 23.67
lwrist -4.21953
lhand -10.8502 20.8649
lfingers 7.12502
lthumb 15.1648 50.2892
rfemur -6.7475 5.16119 24.7407
rtibia 28.688
rfoot -15.5358 19.5481
rtoes 29.6
lfemur -16.8881 -17.1322 -7.5936
ltibia 30.4997
lfoot -2.80521 -31.9425
ltoes 20.4562
